<svg width="135" height="135" xmlns="http://www.w3.org/2000/svg" xmlns:xlink="http://www.w3.org/1999/xlink"><defs><path id="a" d="M.06.696h134.244V135H.06z"/></defs><g fill="none" fill-rule="evenodd"><mask id="b" fill="#fff"><use xlink:href="#a"/></mask><path fill="#2B2C29" mask="url(#b)" d="M.06 135h134.244V.696H.06z"/><path d="M28.791 30.739c-.407 0-.754-.317-.754-.724a.76.76 0 0 1 .754-.769h6.395c.406 0 .753.331.753.769 0 .407-.347.724-.753.724h-2.398v8.159a.824.824 0 0 1-.829.814c-.423 0-.77-.377-.77-.814v-8.159h-2.398M46.509 35.203h-4.69v3.695a.824.824 0 0 1-.829.814c-.423 0-.77-.377-.77-.814v-8.914c0-.436.347-.813.77-.813.467 0 .829.377.829.813v3.756h4.69v-3.756c0-.436.347-.813.77-.813.467 0 .83.377.83.813v8.914a.825.825 0 0 1-.83.814c-.423 0-.77-.377-.77-.814v-3.695M54.303 39.637c-.483 0-.845-.332-.845-.875v-8.641c0-.544.362-.875.845-.875h4.75c.407 0 .739.331.739.754a.728.728 0 0 1-.739.724h-3.996V33.8h3.408c.392 0 .738.332.738.754 0 .392-.346.709-.738.709h-3.408v2.896h4.146c.408 0 .74.332.74.754a.728.728 0 0 1-.74.724h-4.9M34.613 51.518c.407 0 .738.331.738.754a.728.728 0 0 1-.738.724h-3.906v3.076h2.955c.392 0 .739.332.739.754 0 .392-.347.709-.739.709h-2.955v3.634a.826.826 0 0 1-.83.815c-.423 0-.769-.378-.769-.815v-8.777c0-.543.361-.874.844-.874h4.661M41.926 58.304v-6.048c0-.437.347-.814.769-.814.467 0 .83.377.83.814v6.048c0 1.343 1.071 2.218 2.262 2.218 1.192 0 2.262-.875 2.262-2.218v-6.048c0-.437.362-.814.83-.814.422 0 .769.377.769.814v6.048c0 2.278-1.779 3.756-3.861 3.756-2.081 0-3.861-1.478-3.861-3.756M56.811 53.011c-.407 0-.754-.318-.754-.724a.76.76 0 0 1 .754-.769h6.395c.406 0 .753.331.753.769 0 .406-.347.724-.753.724h-2.398v8.158a.825.825 0 0 1-.829.815c-.423 0-.77-.378-.77-.815v-8.158h-2.398M70.369 58.304v-6.048c0-.437.347-.814.768-.814.469 0 .83.377.83.814v6.048c0 1.343 1.072 2.218 2.263 2.218 1.192 0 2.262-.875 2.262-2.218v-6.048c0-.437.362-.814.829-.814.423 0 .77.377.77.814v6.048c0 2.278-1.781 3.756-3.861 3.756-2.082 0-3.861-1.478-3.861-3.756M87.17 52.996v3.635h2.322c1.161 0 1.629-.921 1.629-1.811 0-.874-.453-1.824-1.57-1.824H87.17zm4.825 7.706c.242.332.211.92-.181 1.161-.347.212-.845.151-1.1-.211l-2.369-3.559H87.17v3.076a.826.826 0 0 1-.83.815c-.423 0-.77-.378-.77-.815v-8.777c0-.543.362-.874.845-.874h3.198c2.231 0 3.166 1.643 3.166 3.302 0 1.523-.769 3.002-2.684 3.213l1.9 2.669zM100.591 61.909c-.483 0-.845-.332-.845-.875v-8.642c0-.543.362-.874.845-.874h4.751c.406 0 .739.331.739.754a.729.729 0 0 1-.739.724h-3.998v3.076h3.41c.391 0 .738.332.738.754 0 .392-.347.709-.738.709h-3.41v2.895h4.148c.407 0 .738.333.738.755a.727.727 0 0 1-.738.724h-4.901M30.722 83.44a.824.824 0 0 1-.83.816c-.423 0-.769-.377-.769-.816v-8.912c0-.438.346-.815.769-.815.468 0 .83.377.83.815v8.912M36.993 81.102c.437-.12.845.03 1.04.513.333.679.86 1.253 1.976 1.253 1.222 0 1.856-.664 1.961-1.417.06-.965-.679-1.464-1.644-1.69l-1.312-.332c-2.231-.604-2.579-1.87-2.579-2.79 0-1.78 1.598-2.97 3.424-2.97 1.583 0 2.624.632 3.121 1.929.151.392-.029.861-.422.981-.467.151-.784-.062-.995-.467-.468-.801-1.161-.936-1.734-.936-.951 0-1.796.573-1.796 1.433 0 .407.152 1.04 1.389 1.356l1.327.349c2.095.558 2.97 1.734 2.805 3.227-.151 1.628-1.553 2.79-3.545 2.79-1.734 0-3.046-.966-3.499-2.217-.135-.407.076-.904.483-1.012M70.677 82.702h3.499c.407 0 .74.331.74.755a.728.728 0 0 1-.74.723h-4.252c-.484 0-.845-.333-.845-.876v-8.776c0-.438.346-.815.769-.815.467 0 .829.377.829.815v8.174M81.684 83.44a.824.824 0 0 1-.83.816c-.422 0-.769-.377-.769-.816v-8.912c0-.438.347-.815.769-.815.468 0 .83.377.83.815v8.912M90.639 78.961l3.68 3.997c.272.288.287.859-.075 1.147-.287.226-.785.211-1.071-.107l-3.62-4.026v3.468a.824.824 0 0 1-.829.816c-.423 0-.769-.377-.769-.816v-8.912c0-.438.346-.815.769-.815.467 0 .829.377.829.815v3.483l3.032-4.012c.226-.317.724-.377 1.055-.15.317.211.377.709.136 1.026l-3.137 4.086M100.59 84.18c-.483 0-.845-.333-.845-.876v-8.64c0-.543.362-.876.845-.876h4.751c.406 0 .739.333.739.755a.728.728 0 0 1-.739.723h-3.998v3.076h3.41c.391 0 .738.332.738.755 0 .393-.347.709-.738.709h-3.41v2.896h4.148c.407 0 .739.331.739.755a.727.727 0 0 1-.739.723h-4.901M82.528 97.538v3.634h2.474c1.161 0 1.659-.92 1.659-1.809 0-.876-.483-1.825-1.599-1.825h-2.534zm0 8.175a.824.824 0 0 1-.829.813c-.423 0-.77-.378-.77-.813v-8.779c0-.543.363-.874.845-.874h3.318c2.248 0 3.167 1.643 3.167 3.303 0 1.659-.919 3.273-3.167 3.273h-2.564v3.077zM94.395 105.713a.824.824 0 0 1-.83.813c-.423 0-.769-.378-.769-.813v-8.915c0-.436.346-.813.769-.813.468 0 .83.377.83.813v8.915M100.591 106.451c-.483 0-.845-.331-.845-.875v-8.642c0-.543.362-.874.845-.874h4.751c.406 0 .739.331.739.754a.729.729 0 0 1-.739.724h-3.998v3.077h3.41c.391 0 .738.332.738.754 0 .391-.347.708-.738.708h-3.41v2.895h4.148c.407 0 .738.332.738.754a.727.727 0 0 1-.738.725h-4.901M69.196 106.448H29.923a.799.799 0 0 1-.798-.797v-7.364a.797.797 0 0 1 1.595 0v6.566h38.476a.8.8 0 0 1 .798.798.8.8 0 0 1-.798.797M70.859 29.171h34.61c.44 0 .798.356.798.797v7.364a.798.798 0 0 1-1.595 0v-6.567H70.859a.798.798 0 0 1 0-1.594" fill="#FFFFFE"/></g></svg>